<svg height="511pt" viewBox="-36 0 511 511.99523" width="511pt" xmlns="http://www.w3.org/2000/svg"><g fill-rule="evenodd"><path d="m162.917969 182.050781s102 39 82 130c0 0 31.761719-10.007812 48.5-39 39.0625 59.730469 56.457031 178.140625-63.078125 224.613281-3.148438 1.589844-6.332032 2.996094-9.523438 4.203126 107.324219-3.570313 214.527344-77.535157 209.464844-209.046876-13.101562 23.035157-72.699219 22.648438-72.699219 22.648438 53.699219-117.734375-24.886719-175.324219-24.886719-175.324219 8.457032 74.375-177.742187 85.183594-85.789062-130.144531-197.78125 37.113281-167.652344 291.773438-167.652344 291.773438-22.269531-3.835938-65.492187-49.90625-65.492187-49.90625-24.285157 174.386718 89.398437 252.515624 204.109375 250.078124-.089844-.003906-.183594-.007812-.273438-.011718-89.886718-.511719-155.796875-94.371094-109.335937-181.5 21.128906-39.628906 65.222656-98.960938 54.65625-138.382813zm0 0" fill="#fd4848"/><path d="m244.917969 312.050781c20-91-82-130-82-130 10.566406 39.421875-33.527344 98.753907-54.65625 138.378907-46.460938 87.128906 19.449219 180.992187 109.335937 181.503906-71.597656-3.394532-139.496094-133.125-20.378906-200.320313-30.359375 71.914063 36.183594 110.5625 74.824219 64.71875 44.148437 44.53125 4.921875 107.824219-41.703125 131.332031 119.535156-46.472656 102.140625-164.886718 63.078125-224.617187-16.742188 28.996094-48.5 39.003906-48.5 39.003906zm0 0" fill="#ff8244"/><path d="m272.042969 366.332031c-38.644531 45.84375-105.183594 7.199219-74.824219-64.714843-119.117188 67.191406-51.222656 196.925781 20.378906 200.316406h.738282c4.144531-1.34375 8.144531-2.769532 12.003906-4.269532 46.621094-23.507812 85.851562-86.800781 41.703125-131.332031zm0 0" fill="#ffba4a"/></g><path d="m440.273438 292.433594c-.175782-4.464844-3.285157-8.269532-7.625-9.332032-4.335938-1.054687-8.855469.890626-11.0625 4.773438-5.550782 9.757812-28.359376 15.160156-48.703126 16.933594 21.65625-56.71875 13.171876-99.003906 1.527344-125.214844-13.855468-31.1875-34.917968-46.863281-35.808594-47.515625-3.203124-2.347656-7.492187-2.578125-10.929687-.582031-3.4375 1.992187-5.363281 5.832031-4.917969 9.777344 2.195313 19.3125-12.570312 28.917968-19.023437 32.148437-14.519531 7.277344-37.601563 8.097656-53.960938-7.292969-26.597656-25.023437-24.289062-80.496094 6.332031-152.203125 1.449219-3.394531.910157-7.308593-1.398437-10.1875-2.308594-2.875-6.015625-4.246093-9.644531-3.566406-23.976563 4.5-49.640625 13.679687-65.378906 23.394531-4.699219 2.902344-6.15625 9.0625-3.253907 13.761719 2.898438 4.699219 9.0625 6.160156 13.761719 3.257813 9.773438-6.03125 24.671875-12.035157 40.230469-16.429688-36.511719 96.527344-12.679688 139.296875 5.644531 156.539062 23.480469 22.085938 55.402344 21.242188 76.628906 10.609376 13.574219-6.804688 23.042969-17.234376 27.460938-29.640626 5.210937 6.382813 11.09375 15.054688 15.980468 26.050782 15.953126 35.90625 13.375 77.492187-7.65625 123.601562-1.40625 3.085938-1.15625 6.671875.667969 9.53125 1.828125 2.855469 4.972657 4.597656 8.367188 4.617188.636719.003906 15.96875.070312 33.160156-2.824219 11.78125-1.980469 21.613281-4.882813 29.453125-8.675781-4.789062 86.523437-61.117188 130.710937-95.996094 149.90625-14.550781 8.007812-30.007812 14.289062-45.925781 18.851562 3.582031-2.714844 6.996094-5.542968 10.234375-8.496094 15.996094-14.570312 27.855469-32.027343 35.242188-51.878906 1.925781-5.175781-.707032-10.933594-5.882813-12.859375s-10.933594.707031-12.859375 5.882813c-1.574219 4.230468-3.386719 8.316406-5.414062 12.261718 5.511718-25.695312-1.527344-49.320312-20.382813-68.34375-1.976563-1.992187-4.703125-3.074218-7.507813-2.949218-2.804687.113281-5.433593 1.398437-7.242187 3.546875-13.769531 16.339843-32.441406 20.902343-47.570313 11.628906-14.023437-8.597656-25.160156-31.042969-10.394531-66.011719 1.664063-3.941406.636719-8.503906-2.554687-11.351562-3.195313-2.847656-7.84375-3.347656-11.570313-1.25-29.683593 16.746094-50.304687 38.167968-61.300781 63.671875-9.597656 22.265625-11.296875 46.882812-4.917969 71.183593 3.292969 12.53125 8.65625 24.578126 15.6875 35.484376-9.007812-7.824219-16.851562-17.058594-23.109375-27.488282-20.378906-33.964844-20.957031-74.285156-1.582031-110.617187 4.300781-8.0625 9.632813-17.0625 15.28125-26.589844 19.207031-32.414063 40.523437-68.394531 42.089844-99.800781 8.722656 4.84375 20.027343 12.117187 30.621093 21.929687 27.390626 25.375 37.511719 55.394531 30.074219 89.222657-.765625 3.488281.386719 7.117187 3.019531 9.527343 2.632813 2.40625 6.347657 3.230469 9.753907 2.15625 1.222656-.382812 25.914062-8.378906 44.675781-30.203125 9.148438 17.402344 15.574219 37.167969 18.414062 56.984375.78125 5.46875 5.851563 9.261719 11.316407 8.480469 5.464843-.78125 9.261719-5.851562 8.480469-11.316406-3.972657-27.726563-14.28125-55.410156-29.023438-77.953125-1.902344-2.910157-5.171875-4.625-8.648438-4.523438-3.472656.097657-6.644531 1.988281-8.382812 4.996094-7.429688 12.867187-18.429688 21.574219-27.425781 27.019531 1.84375-33.453125-11.476563-64.097656-39.148438-89.511718-24.128906-22.160157-50.578125-32.421876-51.691406-32.847657-3.507813-1.34375-7.476563-.605469-10.269531 1.910157-2.789063 2.519531-3.933594 6.386718-2.960938 10.015624 7.273438 27.144532-17.886718 69.601563-38.101562 103.714844-5.765625 9.730469-11.210938 18.917969-15.722656 27.375-22.761719 42.683594-22.003907 90.183594 2.082031 130.320313 5.902343 9.839843 13.007812 18.765625 21.054687 26.660156-9.160156-4.246094-17.90625-9.183594-26.105468-14.832031-55.058594-37.910156-81.316407-102.804688-75.03125-184.132813 15.667968 14.914063 39.390624 35.003907 56.117187 37.890625 3.109375.53125 6.289063-.429687 8.578125-2.601562 2.292969-2.171875 3.421875-5.296875 3.050781-8.429688-.15625-1.3125-14.765625-132.121094 49.820313-215.652344 3.378906-4.371093 2.578125-10.648437-1.792969-14.027343-4.371094-3.378907-10.648437-2.574219-14.027344 1.792969-36.488281 47.195312-49.179687 107.34375-53.398437 149.492187-2.660156 26.597656-2.417969 49.292969-1.726563 63.792969-15.082031-9.5625-35.109375-28.308594-47.003906-40.976563-2.636719-2.808593-6.652344-3.855469-10.320313-2.6875-3.671874 1.167969-6.34375 4.335938-6.875 8.148438-13.757812 98.800781 15.101563 178.304687 81.265626 223.863281 34.414062 23.695312 76.785156 36.695312 122.539062 37.601562 1.636719.03125 3.269531.050782 4.910156.050782 1.804688 0 3.609375-.027344 5.414063-.066406.824219.027343 1.648437.066406 2.46875.066406.664062 0 1.324219-.074219 1.972656-.203125 39.101563-1.535157 78.148437-12.132813 111.347656-30.402344 33.03125-18.179687 60.128907-43.773437 78.371094-74.011719 20.308594-33.660156 29.773437-72.335937 28.132813-114.945312zm-259.957032 32.585937c-1.328125 9.765625-.988281 19.136719 1.054688 27.8125 3.628906 15.382813 12.507812 28.074219 25.003906 35.738281 11.03125 6.761719 24.195312 9.113282 37.066406 6.617188 10.125-1.960938 19.675782-6.773438 28.082032-14.085938 9.039062 12.535157 11.859374 26.84375 8.382812 42.660157-5.535156 25.203125-27.765625 51.539062-53.640625 64.75-2.984375 1.152343-6.039063 2.253906-9.175781 3.300781-.234375.003906-.46875.007812-.703125.011719-30.550781-2.441407-61.179688-31.921875-70.953125-69.140625-4.847656-18.460938-9.699219-61.558594 34.882812-97.664063zm0 0"/><path d="m312.550781 375.503906-.003906.199219c-.191406 5.519531 4.125 10.148437 9.644531 10.339844.117188.003906.234375.007812.355469.007812 5.359375 0 9.796875-4.253906 9.984375-9.652343l.011719-.308594c.160156-5.519532-4.183594-10.128906-9.703125-10.289063-5.539063-.164062-10.125 4.183594-10.289063 9.703125zm0 0"/><path d="m161.453125 57.003906c0 5.523438-4.476563 10-10 10s-10-4.476562-10-10c0-5.523437 4.476563-10 10-10s10 4.476563 10 10zm0 0"/></svg>